<svg xmlns="http://www.w3.org/2000/svg" style="display:none">
  <symbol id="icon-gift" viewBox="0 0 24 24">
    <path fill="currentColor" d="M20 7h-1.81A3.001 3.001 0 0 0 12 2a3.001 3.001 0 0 0-6.19 5H4a2 2 0 0 0-2 2v2a1 1 0 0 0 1 1v9a2 2 0 0 0 2 2h14a2 2 0 0 0 2-2v-9a1 1 0 0 0 1-1V9a2 2 0 0 0-2-2zM12 4a1 1 0 1 1 0 2 1 1 0 0 1 0-2zm-4 1a1 1 0 1 1 2 0 1 1 0 0 1-2 0zm10 15H6a1 1 0 0 1-1-1v-8h14v8a1 1 0 0 1-1 1zm2-11v1H3V9a1 1 0 0 1 1-1h16a1 1 0 0 1 1 1z"/>
  </symbol>
  <symbol id="icon-kids" viewBox="0 0 24 24">
    <path fill="currentColor" d="M12 12c2.21 0 4-1.79 4-4s-1.79-4-4-4-4 1.79-4 4 1.79 4 4 4zm0 2c-2.67 0-8 1.34-8 4v2h16v-2c0-2.66-5.33-4-8-4z"/>
  </symbol>
</svg>
